/* XPM */
static char *result[] = {
/* columns rows colors chars-per-pixel */
"63 64 160 2 ",
"   c #060706",
".  c #080707",
"X  c #070807",
"o  c #080708",
"O  c #070808",
"+  c #0B0C0B",
"@  c #10100F",
"#  c #0F0F10",
"$  c #0F1110",
"%  c #121212",
"&  c #191718",
"*  c #1D1C1C",
"=  c #201E1E",
"-  c #1F201F",
";  c #21201F",
":  c #1C1E20",
">  c #1F2022",
",  c #252324",
"<  c #282626",
"1  c #2B2927",
"2  c #25262A",
"3  c #292728",
"4  c #26292E",
"5  c #2C2A2A",
"6  c #322C26",
"7  c #312E2E",
"8  c #34312F",
"9  c #242A33",
"0  c #2D2F33",
"q  c #252D39",
"w  c #212731",
"e  c #312F30",
"r  c #2B323B",
"t  c #2F3135",
"y  c #333333",
"u  c #383736",
"i  c #373837",
"p  c #393836",
"a  c #363638",
"s  c #393738",
"d  c #3C3B3B",
"f  c #403E3E",
"g  c #42403F",
"h  c #253243",
"j  c #3D3E40",
"k  c #413F40",
"l  c #3F4040",
"z  c #444344",
"x  c #484747",
"c  c #464748",
"v  c #484748",
"b  c #474948",
"n  c #4C4C4C",
"m  c #514E4F",
"M  c #52504F",
"N  c #4F4F50",
"B  c #514F50",
"V  c #4F5153",
"C  c #535353",
"Z  c #585656",
"A  c #565857",
"S  c #565758",
"D  c #595759",
"F  c #57585A",
"G  c #5B5B5C",
"H  c #595856",
"J  c #5E605F",
"K  c #62605E",
"L  c #5E5F61",
"P  c #615F61",
"I  c #5F6162",
"U  c #636364",
"Y  c #666867",
"T  c #656668",
"R  c #696768",
"E  c #67696A",
"W  c #6B6B6C",
"Q  c #686666",
"!  c #6E706F",
"~  c #73726F",
"^  c #6E6F70",
"/  c #706F70",
"(  c #6E7072",
")  c #737374",
"_  c #787877",
"`  c #757679",
"'  c #787778",
"]  c #77797A",
"[  c #7B7B7C",
"{  c #7D7E81",
"}  c #7F8182",
"|  c #828385",
" . c #878887",
".. c #858689",
"X. c #86898B",
"o. c #8A8B8C",
"O. c #8E908F",
"+. c #90908E",
"@. c #858C93",
"#. c #8C8E91",
"$. c #8E9194",
"%. c #8D949A",
"&. c #929495",
"*. c #969897",
"=. c #989897",
"-. c #949699",
";. c #98979A",
":. c #95999C",
">. c #9A9C9D",
",. c #9EA09F",
"<. c #949CA2",
"1. c #9B9EA1",
"2. c #A09FA0",
"3. c #9EA1A3",
"4. c #9DA4A9",
"5. c #96A0A6",
"6. c #A2A4A5",
"7. c #A6A8A7",
"8. c #A3A6A9",
"9. c #A5AAAC",
"0. c #AAACAC",
"q. c #B1AFAD",
"w. c #AFB0AF",
"e. c #A4ABB1",
"r. c #ABAEB1",
"t. c #ADB2B4",
"y. c #AFB5B8",
"u. c #B2B3B3",
"i. c #B2B6B9",
"p. c #B8B7B8",
"a. c #B5B9BC",
"s. c #BABCBD",
"d. c #BFC0BF",
"f. c #B7BDC0",
"g. c #BCBEC0",
"h. c #BDC1C3",
"j. c #C3C4C5",
"k. c #C4C6C9",
"l. c #C6C9CA",
"z. c #CBCCCD",
"x. c #CFD0CF",
"c. c #CDCFD0",
"v. c #CFD0D2",
"b. c #D2D4D4",
"n. c #D7D9D7",
"m. c #D8D9D7",
"M. c #D5D7D9",
"N. c #D7D9D9",
"B. c #DBDCDD",
"V. c #DEDFE0",
"C. c #DEE0E1",
"Z. c #E4E4E4",
"A. c #EAE9E6",
"S. c #E5E7E8",
"D. c #E7E8E8",
"F. c #EDEDEC",
"G. c #F1F2EE",
"H. c #EEF0F0",
"J. c #F3F4F3",
"K. c None",
/* pixels */
"K.K.K.K.K.K.K.K.K.K.K.K.K.K.K.K.K.K.K.K.K.K.K.K.8.e.r.q.q.q.0.0.w.0.2.2.2.>.K.K.K.K.K.K.K.K.K.K.K.K.K.K.K.K.K.K.K.K.K.K.K.K.K.",
"K.K.K.K.K.K.K.K.K.K.K.K.K.K.K.K.K.K.K.K.K.9.r.w.w.u.w.w.u.q.q.q.w.q.r.r.q.0.q.7.K.K.K.K.K.K.K.K.K.K.K.K.K.K.K.K.K.K.K.K.K.K.K.",
"K.K.K.K.K.K.K.K.K.K.K.K.K.K.K.K.K.K.K.0.r.u.q.u.u.u.u.u.q.u.u.u.w.q.q.w.0.0.7.0.7.7.7.K.K.K.K.K.K.K.K.K.K.K.K.K.K.K.K.K.K.K.K.",
"K.K.K.K.K.K.K.K.K.K.K.K.K.K.K.K.K.0.0.u.u.u.u.u.u.p.s.j.j.j.j.j.h.s.p.w.q.0.q.0.0.7.7.6.7.K.K.K.K.K.K.K.K.K.K.K.K.K.K.K.K.K.K.",
"K.K.K.K.K.K.K.K.K.K.K.K.K.K.K.0.w.u.u.u.u.u.p.d.b.Z.F.F.F.F.A.A.A.A.Z.m.j.u.q.0.0.7.7.7.6.6.6.K.K.K.K.K.K.K.K.K.K.K.K.K.K.K.K.",
"K.K.K.K.K.K.K.K.K.K.K.K.K.K.0.u.u.u.u.u.u.p.s.c.B.N.b.v.c.c.v.v.x.m.V.Z.A.x.p.0.7.7.7.7.6.6.2.2.2.K.K.K.K.K.K.K.K.K.K.K.K.K.K.",
"K.K.K.K.K.K.K.K.K.K.K.K.8.0.w.u.w.w.u.w.u.u.w.r.r.0.0.0.8.0.8.9.7.0.0.0.u.q.0.7.7.7.6.6.6.6.6.,.2.2.K.K.K.K.K.K.K.K.K.K.K.K.K.",
"K.K.K.K.K.K.K.K.K.K.K.8.0.r.w.r.r.0.0.r.9.8.8.7.2.2.2.6.2.2.2.2.2.2.2.>.>.2.2.2.2.6.6.>._ ~ >.>.2.=.=.K.K.K.K.K.K.K.K.K.K.K.K.",
"K.K.K.K.K.K.K.K.K.K.8.9.1.0.r.0.9.7.7.6.2.1.1.3.1.2.>.1.,.>.>.>.>.>.>.>.>.=.>.=.>.,. .n * * U >.2.=.=.=.=.K.K.K.K.K.K.K.K.K.K.",
"K.K.K.K.K.K.K.K.K.6.0.| s W 6.8.6.1.>.>.>.1.>.>.>.>.>.;.;.>.>.;.;.;.=.=.*.*.*.*.*.! 5 % % % * U =.;.=.=.=.=.K.K.K.K.K.K.K.K.K.",
"K.K.K.K.K.K.K.K.3.0.&.y @ & c o.,.>.:.:.;.;.;.;.;.;.*.*.:.*.*.*.&.*.&.&.&.+.&.| z & @ @ @ $ + * Y &.=.=.+.+.+.K.K.K.K.K.K.K.K.",
"K.K.K.K.K.K.K.,.8.>.d % + + O , J o.&.&.-.&.&.&.&.&.$.$.&.&.&.&.$.$.O.+.O.o.| H g l d p e 3 = & , W &.&.&.+.+.o.K.K.K.K.K.K.K.",
"K.K.K.K.K.K.K.7.3.A % $ & , i l n ! $.&.$.&.$.&.#.&.#.#.$.O.$.o.o.o.o.o. . .| [ [ ` _ ) E U A c 8 d [ &.+.+.+.o. .K.K.K.K.K.K.",
"K.K.K.K.K.K.6.7.) - , z U ) } } | | X.o.o.$.o.#.#.o.o.o.o.o.o.o.o.o.o.| | [ _ _ ) ~ W E W W ( W U Z K | +.+.#.o. .K.K.K.K.K.K.",
"K.K.K.K.K.6.6.,.n n ! [ [ ] ] ` _ ] [ } | o.o.o.o.o.o.o.X.X.X.X. . .| _ ) W U G H A C C C Z G U W ) ) } o.+.+.o. .} K.K.K.K.K.",
"K.K.K.K.K.,.6.&._ } ] ! U G G G G U E ! ' { ..X.X.X.X.X.X...X... .| _ Y G M v z d d s d d z x C K W ) [  . . .o. .} [ K.K.K.K.",
"K.K.K.K.3.6.,.&. .) Y C n z z z b n C G U ) [ ..} @.X.X. .X.X...| ` U M z l a y y y y e y i s z M J W _ }  . .o. .} _ ~ K.K.K.",
"K.K.K.5.3.3.*. ._ U V z d d d d d j l b C Y ) }  .X.X. .....X.} [ Y C z i y t e y s s d s s s d c M U _ [ |  . . .| ' ~ K.K.K.",
"K.K.K.3.3.>.o.[ E A z j d d l b b z l j b A ! [ } @.X.X.....} } ) J n l i e y a j n G W ^ E D v z v Z Y _ } | X. .| _ ~ K.K.K.",
"K.K.K.3.,.$.| ) J b j l n Y [ } [ ! A n n J ! ] } } X.} } X...[ W H n l i y a S | u.b.B.Z.c.s.>.W n C G / [ | X. . .[ ~ / K.K.",
"K.K.5.3.>.X.[ Y V z b ] t.c.V.H.J.C.y.{ I I ! ` [ } X.......} ] U C z d d z ) u.M.J.J.J.J.V.m.b.g.o.L G R ' | X. . .} ) R K.K.",
"K.K.,.,.$...) J n n $.v.V.V.V.F.J.H.S.l.$.( W ( } ........ .| ) K N g l v [ k.N.B.Z.D.S.V.b.c.c.c.j.#.U T ' | X.o.o. ._ R K.K.",
"K.K.3.>.$.| ( J V X.b.B.M.M.B.B.C.B.M.M.c.} ( ` } X. .O.X.X.} ] U N z z E s.m.m.N.b.b.b.x.z.z.l.k.l.p.| ^ ` | @.+.o. .[ W K K.",
"K.5.3.>.O.} Y A ( l.N.b.b.M.b.M.b.v.v.v.M.y.} } } $.$.$.%.$.@.} E C b V >.b.N.b.b.b.c.j.j.k.k.j.j.s.s.8.] { ..#.+.+. .[ ~ K K.",
"K.3.3.:.$.[ E I r.M.b.b.l.6.o.6.h.v.z.z.z.k.*...$.:.:.1.,.,.#.} ! A V E h.M.b.b.c.p.) m v R 7.s.s.p.p.0...| o.$.;.#.o.| / G K.",
"K.3.,.:.$.} ( ] h.b.b.j.I * & , I y.l.k.l.j.t.#.:.5.4.9.9.4.,.} ) G L } l.v.v.x.w.x * & % + e &.p.u.r.9.%.#.$.-.;.&.o.| / D M ",
"<.,.3.>.$.} ] @.l.z.x._ $ % % % & I g.h.h.h.y.:.3.4.0.h.v.d.3.O.[ E I %.z.x.z.l.Q # % % # + o c 0.0.7.2.-.-.:.>.;.&.#.| ) H m ",
"<.3.3.3.-.X.} :.l.l.d.l O + @ % @ 2 6.s.s.a.t.5.4.r.t.B.G.x.4.%.} ` ( <.l.l.l.p.d o + % % o o = &.0.1.;.:.<.1.1.2.;.#.| ~ H x ",
":.5.3.3.,.$.} 5.j.j.u.7 X + + @ + , *.i.u.t.t.4.r.t.i.z.N.h.9.,.X.} [ :.j.j.d.p.s . # = % + o &  .2.;.&.<.8.8.6.3.;.+.| / C z ",
"*.3.3.4.3.:.$.,.s.s.p.g   X O O + 5 :.0.0.r.4.4.t.t.y.a.a.y.4.:.$.@.} :.s.s.p.u.K o @ % % + o 5 X.+.o.#.8.9.0.8.6.=.O.| W m f ",
"*.3.4.9.9.3.:.:.a.a.p._ @ X X X + A 6.6.3.4.3.9.t.y.a.a.a.y.4.,.%.$.@.$.t.a.q.0.&.d + o + + % G o...o.-.r.r.r.r.7.*.O.[ Q x f ",
"&.3.7.0.a.e.4.4.t.t.0.6.U * @ & n &.>.:.:.<.4.r.t.y.a.a.i.t.9.,.*.$.$.$.8.t.7.2.>.X.Z e 3 s P ..o.o.@.4.r.t.p.i.6.*.o._ K z p ",
"&.,.9.0.b.h.9.9.e.y.4.3.3.X.) } $.$.%.%.$.<.4.0.y.y.a.f.y.t.9.1.:.%.%.&.:.4.6.:.-.#.#.o.| o.%.#.#.@.;.r.i.f.c.p.2.&.o.) D k y ",
"&.5.7.9.v.B.t.t.t.t.e.5.,.:.,.%.$.$.@.@.<.4.9.r.y.a.c.B.z.t.9.1.%.$.$.$.$.5.4.:.$.%.#.#.#.#.-.@.@.%.e.f.s.M.M.8.;.#.| / Z f 7 ",
"$.>.6.9.d.S.k.i.i.y.y.4.<.<.5.<.%.%.%.4.e.4.9.t.t.y.z.M.z.r.8.>.$.X.X.X.X.-.r.4.%.@.#.%.-.@.@.@.<.r.f.g.B.Z.p.2.;.o.{ P m y 6 ",
"K.:.4.9.r.v.S.h.d.i.y.y.e.5.<.<.5.4.e.d.t.4.9.0.9.r.9.9.9.3.>.&.X.} } [ { $.a.f.f.e.<.;.-.<.1.e.f.s.k.V.Z.j.2.;.#.| ) P k 8 6 ",
"K.>.3.9.9.t.v.S.h.h.y.d.y.y.y.y.d.h.h.h.r.5.4.4.3.5.:.>.;.-.#.| ) ^ ) ( W 1.h.h.p.f.i.r.u.i.a.p.g.b.S.B.f.2.;.&.o.{ W B f 6 6 ",
"K.&.>.4.7.9.t.k.C.C.h.h.f.h.h.h.h.h.h.h.r.*.$.&.$.$.X.o.o.| _ W G C Z A I e.f.f.f.f.f.f.g.g.k.v.V.V.k.0.2.;.&.o.| ' P v 8 < < ",
"K.#.*.,.3.4.7.9.y.c.M.B.M.v.M.v.v.h.d.e.$.] ( ] [ ) ] ) ) Y D v d s d z S 1.t.t.f.f.f.k.V.V.B.b.g.0.2.;.;.$.o...' R Z f 5 , < ",
"K.K.&.:.:.>.5.5.4.4.e.e.y.r.0.8.4.5.5.} ] V n n n n n v x d i 5 5 5 5 0 v #.1.3.2.8.2.0.r.r.9.7.2.;.;.%.o.....[ ^ P n 8 < , K.",
"K.K.o.$.&.-.-.%.&.-.&.*.-.-.#.o.} } ] Y A l V l i 5 5 7 1 1 3 , 5 5 e 2 s ^ ..o.#.$.&.&.&.&.&.&.&.o.o...| [ _ ~ P B d 1 ; ; K.",
"K.K.| ..o.......X.| | o.| ] _ E J V l l ( } J l d e e 5 5 5 1 2 2 , , y F L D U / _ [ { | | | X.| | [ [ ' ) W U B z 7 < ; * K.",
"K.K.K.] { { { ` _ ( ! ) U F v k y 7 i ( e.e.} l e 3 2 , , , , * > , i G ..#.E v z m D U R E W / / / W E E Y G C z y 3 = ; K.K.",
"K.K.K.Y E W E L G Z n v k a e 1 1 i ) e.e.t.4.} V s 5 4 5 5 3 5 i b E } -.1.:.W k s s k x n C C C Z D D Z C n z y 1 3 = * K.K.",
"K.K.K.K.C Z n b d d u y 5 5 2 , e ( 4.0.t.r.r.4.%.( L N n c N B I ` ..$.;.1.>.;.^ k y y y y u s d f z z z z d y 1 , , > , K.K.",
"K.K.K.K.k d s i y 7 5 1 1 1 3 5 V -.6.9.e.e.0.9.2.<.@.{ { { { | X.#.-.;.1.>.;.#.X.G d 5 1 1 1 6 7 7 7 y y 8 5 2 , , , 9 K.K.K.",
"K.K.K.K.K.y 5 5 5 1 5 1 5 1 2 n } } $.3.4.9.4.7.8.2.1.<.<.-.-.-.-.-.-.&.$.$.X.' U ) ( s 5 1 1 1 3 1 6 1 5 3 , 2 1 5 q h K.K.K.",
"K.K.K.K.K.K.s y 5 5 5 0 5 5 i E 1.8.( ! O.:.3.3.8.1.8.2.1.1.1.1.-.%.@. .[ R m m | >.[ N 0 3 3 3 5 5 6 1 , , 1 0 y r h K.K.K.K.",
"K.K.K.K.K.K.K.j d a a y 5 5 n ] ..1.8.W v L / { o.%.&.&.*.-.#.o.{ / P m d e D ;.&.) U D z 5 3 , 2 3 3 5 5 0 e y h h h K.K.K.K.",
"K.K.K.K.K.K.K.K.j a y 5 5 a G ` ' { &.w.| k e a k N C D D C B z d e 1 1 k { 2.| U A Z Z n d 5 3 7 3 2 , 2 y a y r r K.K.K.K.K.",
"K.K.K.K.K.K.K.K.d y 5 5 e b I ^ / ) ` o.r.2.T a 5 5 3 5 5 5 3 3 1 5 d R 2.;.W Z C n m n v k u 1 3 3 1 3 0 y a t q w K.K.K.K.K.",
"K.K.K.K.K.K.K.K.K.a t i z C L U T E W ^ | 2.f.%.T n j t y e e s N ) 1.7.{ P m n v c k k j d d s y e 5 1 0 y y 0 9 K.K.K.K.K.K.",
"K.K.K.K.K.K.K.K.K.K.j v A U T T P P P T R ) &.u.f.r.1.#...o.&.2.r.w.#.Q m x z z f d d d d c n v x f e 5 e a y q 2 K.K.K.K.K.K.",
"K.K.K.K.K.K.K.K.K.K.K.C E ( ` ( W P L L G P P ) ..;.8.r.q.r.0.;.{ Q m k k f d s u s d z m Z D Z B k e e e y e 9 K.K.K.K.K.K.K.",
"K.K.K.K.K.K.K.K.K.K.K.K.I { { { { ( R D C B C C B C G P P G Z n k f d d u y y i d c m D P U U K Z k e e a e 9 K.K.K.K.K.K.K.K.",
"K.K.K.K.K.K.K.K.K.K.K.K.K.( { } | | ' R D n k k k d s d s y 8 u e e 7 7 7 e u z C G U Q R U U P B s y y e 9 K.K.K.K.K.K.K.K.K.",
"K.K.K.K.K.K.K.K.K.K.K.K.K.K.) { | ....| ) P C k f s y y 7 7 7 6 5 7 7 e f x C K U Q R Q Q U G n d y y y K.K.K.K.K.K.K.K.K.K.K.",
"K.K.K.K.K.K.K.K.K.K.K.K.K.K.K.^ [ ........| ' P C m k k f s s f f f x m Z P R R W R Q U G B f y y y 0 K.K.K.K.K.K.K.K.K.K.K.K.",
"K.K.K.K.K.K.K.K.K.K.K.K.K.K.K.K.W / [  ...| | ' ) / P P D D D D D P R W / W W W R U P C z y e 0 0 K.K.K.K.K.K.K.K.K.K.K.K.K.K.",
"K.K.K.K.K.K.K.K.K.K.K.K.K.K.K.K.K.K.R ) { | | | { { ' ' ' ) ' ~ ~ ) ) / / W R U G m k y 7 < , = K.K.K.K.K.K.K.K.K.K.K.K.K.K.K.",
"K.K.K.K.K.K.K.K.K.K.K.K.K.K.K.K.K.K.K.G P / ' { { { { { [ [ [ [ ' ' ~ / Q P C x d 7 1 , , * K.K.K.K.K.K.K.K.K.K.K.K.K.K.K.K.K.",
"K.K.K.K.K.K.K.K.K.K.K.K.K.K.K.K.K.K.K.K.K.m G Q / / ' ' ' ' ' ' / / P Z n f 8 5 3 , = * K.K.K.K.K.K.K.K.K.K.K.K.K.K.K.K.K.K.K.",
"K.K.K.K.K.K.K.K.K.K.K.K.K.K.K.K.K.K.K.K.K.K.K.K.x m m Z Z Z Z B m k f 7 5 < < = * K.K.K.K.K.K.K.K.K.K.K.K.K.K.K.K.K.K.K.K.K.K.",
"K.K.K.K.K.K.K.K.K.K.K.K.K.K.K.K.K.K.K.K.K.K.K.K.K.K.K.8 8 8 8 7 6 < < = = = K.K.K.K.K.K.K.K.K.K.K.K.K.K.K.K.K.K.K.K.K.K.K.K.K."
};
